<svg xmlns="http://www.w3.org/2000/svg" xmlns:xlink="http://www.w3.org/1999/xlink" width="1617px" height="669px" viewBox="0 0 1617 669" version="1.1">
    <title>bg_contactus3</title>
    <g id="Page-1" stroke="none" stroke-width="1" fill="none" fill-rule="evenodd">
        <g id="bg_contactus3" fill-rule="nonzero">
            <polygon id="Path" fill="#172B4D" points="586 0 786 0 786 200 586 200"/>
            <path d="M1318,128 C1373.22847,128 1418,172.771525 1418,228 L1418,328 L1218,328 L1218,228 C1218,172.771525 1262.77153,128 1318,128 Z" id="Path" fill="#FE5E33" transform="translate(1318.000000, 228.000000) scale(-1, 1) rotate(-180.000000) translate(-1318.000000, -228.000000) "/>
            <path d="M1118,0 C1173.22847,0 1218,44.771525 1218,100 L1218,200 L1018,200 L1018,100 C1018,44.771525 1062.77153,0 1118,0 Z" id="Path" fill="#FE5E33" transform="translate(1118.000000, 100.000000) rotate(-180.000000) translate(-1118.000000, -100.000000) "/>
            <path d="M100,0 C155.228475,0 200,44.771525 200,100 L200,200 L100,200 C44.771525,200 0,155.228475 0,100 C0,44.771525 44.771525,0 100,0 Z" id="Path" fill="#11CDEF"/>
            <rect id="Rectangle" fill="#11CDEF" x="683" y="0" width="200" height="200" rx="100"/>
            <path d="M664,200 L726,200 L726,262 C726,296.241654 698.241654,324 664,324 C629.758346,324 602,296.241654 602,262 C602,227.758346 629.758346,200 664,200 Z" id="Path" fill="#172B4D"/>
            <path d="M1617,300 L1417,300 C1417,244.771525 1461.77153,200 1517,200 C1572.22847,200 1617,244.771525 1617,300 Z" id="Path" fill="#172B4D"/>
            <path d="M981,224 C981,279.228475 936.228475,324 881,324 C881,268.771525 925.771525,224 981,224 Z M781,424 C781,368.771525 825.771525,324 881,324 C881,379.228475 836.228475,424 781,424 Z M881,324 C825.771525,324 781,279.228475 781,224 C836.228475,224 881,268.771525 881,324 Z M881,324 C936.228475,324 981,368.771525 981,424 C925.771525,424 881,379.228475 881,324 Z" id="Shape" fill="#172B4D"/>
            <polygon id="Path" fill="#FE5E33" points="1217 0 1417 0 1417 200 1217 200"/>
            <polygon id="Path" fill="#11CDEF" points="383 0 583 0 583 200 383 200"/>
            <polygon id="Path" fill="#FE5E33" points="0 200 200 200 200 400 0 400"/>
            <path d="M1022,200 L1122,200 C1177.22847,200 1222,244.771525 1222,300 C1222,355.228475 1177.22847,400 1122,400 C1066.77153,400 1022,355.228475 1022,300 L1022,200 Z" id="Path" fill="#172B4D"/>
            <path d="M1373,496 C1332.13093,496 1299,462.645214 1299,421.5 C1299,380.354786 1332.13093,347 1373,347 L1373,496 Z" id="Path" fill="#172B4D"/>
            <g id="Group" transform="translate(17.000000, 0.000000)" fill="#11CDEF">
                <path d="M1355,496 L1355,347 C1396.42136,347 1430,380.354786 1430,421.5 C1430,462.645214 1396.42136,496 1355,496 Z" id="Path"/>
                <path d="M565,200 L565,0 C620.228475,0 665,44.771525 665,100 C665,155.228475 620.228475,200 565,200 Z" id="Path"/>
                <path d="M269,200 L269,0 C324.228475,0 369,44.771525 369,100 C369,155.228475 324.228475,200 269,200 Z" id="Path" transform="translate(319.000000, 100.000000) rotate(-180.000000) translate(-319.000000, -100.000000) "/>
                <rect id="Rectangle" x="0" y="400" width="200" height="200" rx="100"/>
                <path d="M1400,300 L1600,300 C1600,355.228475 1555.22847,400 1500,400 C1444.77153,400 1400,355.228475 1400,300 Z" id="Path"/>
            </g>
            <path d="M200,200 C200,144.771525 244.771525,100 300,100 C300,155.228475 255.228475,200 200,200 Z" id="Path" fill="#172B4D"/>
            <path d="M999,122 C999,177.228475 954.228475,222 899,222 C899,166.771525 943.771525,122 999,122 Z" id="Path" fill="#172B4D"/>
            <path d="M1030,417 C1085.22847,417 1130,461.771525 1130,517 C1074.77153,517 1030,472.228475 1030,417 Z" id="Path" fill="#172B4D"/>
            <path d="M1567,250 C1567,305.228475 1522.22847,350 1467,350 C1467,294.771525 1511.77153,250 1567,250 Z" id="Path" fill="#FFFFFF"/>
            <path d="M199,400 L199,200 C254.228475,200 299,244.771525 299,300 C299,355.228475 254.228475,400 199,400 Z" id="Path" fill="#FE5E33"/>
            <path d="M32,328 C32,272.771525 76.771525,228 132,228 C132,283.228475 87.228475,328 32,328 Z" id="Path" fill="#172B4D" transform="translate(82.000000, 278.000000) scale(-1, 1) translate(-82.000000, -278.000000) "/>
            <path d="M817.000003,608.999998 C805.722104,623.945032 784.642864,633.999998 760.500003,633.999998 C736.35714,633.999998 715.277901,623.945032 704.000003,608.999998 C715.277901,594.054964 736.35714,583.999998 760.500003,583.999998 C784.642864,583.999998 805.722104,594.054964 817.000003,608.999998 Z" id="Path" fill="#172B4D" transform="translate(760.500002, 608.999998) rotate(50.000000) translate(-760.500002, -608.999998) "/>
            <path d="M479.5,371 C454.691243,356.72797 438,330.052471 438,299.5 C438,268.947529 454.691243,242.27203 479.5,228 C504.308757,242.27203 521,268.947529 521,299.5 C521,330.052471 504.308757,356.72797 479.5,371 Z M396.5,371 C371.691243,356.72797 355,330.052471 355,299.5 C355,268.947529 371.691243,242.27203 396.5,228 C421.308757,242.27203 438,268.947529 438,299.5 C438,330.052471 421.308757,356.72797 396.5,371 Z" id="Shape" fill="#172B4D"/>
            <rect id="Rectangle" fill="#FE5E33" x="561" y="346" width="200" height="200" rx="100"/>
            <path d="M117,450 C144.614237,450 167,472.385763 167,500 C167,527.614237 144.614237,550 117,550 C89.3857625,550 67,527.614237 67,500 C67,472.385763 89.3857625,450 117,450 Z" id="Path" fill="#172B4D"/>
            <path d="M567.5,537 C586.553824,537 602,552.446176 602,571.5 C602,590.553824 586.553824,606 567.5,606 C548.446176,606 533,590.553824 533,571.5 C533,552.446176 548.446176,537 567.5,537 Z" id="Path" fill="#FE5E33"/>
            <path d="M1052,594 C1068.56854,594 1082,607.431458 1082,624 C1082,640.568542 1068.56854,654 1052,654 C1035.43146,654 1022,640.568542 1022,624 C1022,607.431458 1035.43146,594 1052,594 Z" id="Path" fill="#11CDEF"/>
            <path d="M885,463 C905.434536,463 922,479.565464 922,500 C922,520.434536 905.434536,537 885,537 C864.565464,537 848,520.434536 848,500 C848,479.565464 864.565464,463 885,463 Z" id="Path" fill="#172B4D"/>
            <path d="M437.5,258 C460.419817,258 479,276.356325 479,299 C479,321.643675 460.419817,340 437.5,340 C414.580183,340 396,321.643675 396,299 C396,276.356325 414.580183,258 437.5,258 Z" id="Path" fill="#FE5E33"/>
            <path d="M417,50 C444.614237,50 467,72.3857625 467,100 C467,127.614237 444.614237,150 417,150 C389.385763,150 367,127.614237 367,100 C367,72.3857625 389.385763,50 417,50 Z" id="Path" fill="#172B4D"/>
            <path d="M783,50 C810.614237,50 833,72.3857625 833,100 C833,127.614237 810.614237,150 783,150 C755.385763,150 733,127.614237 733,100 C733,72.3857625 755.385763,50 783,50 Z" id="Path" fill="#FE5E33"/>
            <path d="M1417,100 C1417,155.228475 1372.22847,200 1317,200 C1317,144.771525 1361.77153,100 1417,100 Z M1217,300 C1217,244.771525 1261.77153,200 1317,200 C1317,255.228475 1272.22847,300 1217,300 Z M1317,200 C1261.77153,200 1217,155.228475 1217,100 C1272.22847,100 1317,144.771525 1317,200 Z M1317,200 C1372.22847,200 1417,244.771525 1417,300 C1361.77153,300 1317,255.228475 1317,200 Z" id="Shape" fill="#172B4D"/>
            <path d="M1517,0 L1617,0 L1617,200 L1517,200 C1461.77153,200 1417,155.228475 1417,100 C1417,44.771525 1461.77153,0 1517,0 Z" id="Path" fill="#172B4D"/>
            <path d="M1517,50 C1544.61424,50 1567,72.3857625 1567,100 C1567,127.614237 1544.61424,150 1517,150 C1489.38576,150 1467,127.614237 1467,100 C1467,72.3857625 1489.38576,50 1517,50 Z" id="Path" fill="#FFFFFF"/>
            <path d="M514,395 C514,450.228475 469.228475,495 414,495 C414,439.771525 458.771525,395 514,395 Z M314,595 C314,539.771525 358.771525,495 414,495 C414,550.228475 369.228475,595 314,595 Z M414,495 C358.771525,495 314,450.228475 314,395 C369.228475,395 414,439.771525 414,495 Z M414,495 C469.228475,495 514,539.771525 514,595 C458.771525,595 414,550.228475 414,495 Z" id="Shape" fill="#172B4D"/>
            <path d="M761,446 C761,501.228475 716.228475,546 661,546 C661,490.771525 705.771525,446 761,446 Z M661,546 C605.771525,546 561,501.228475 561,446 C616.228475,446 661,490.771525 661,546 Z" id="Shape" fill="#172B4D"/>
        </g>
    </g>
</svg>